<?xml version="1.0" encoding="utf-8"?>
<!-- Generator: Adobe Illustrator 21.0.2, SVG Export Plug-In . SVG Version: 6.00 Build 0)  -->
<svg version="1.1" id="Livello_1" xmlns="http://www.w3.org/2000/svg" xmlns:xlink="http://www.w3.org/1999/xlink" x="0px" y="0px"
	 viewBox="0 0 100 100" style="enable-background:new 0 0 100 100;" xml:space="preserve">
<style type="text/css">
	.st0{fill:#FFFFFF;stroke:#293173;stroke-miterlimit:10;}
	.st1{fill:#FFFFFF;stroke:#C1A24D;stroke-miterlimit:10;}
	.st2{fill:#293173;}
</style>
<path class="st0" d="M30.3,86.6V13.4c0-2.2,1.8-4,4-4h31.4c2.2,0,4,1.8,4,4v73.2"/>
<g>
	<path class="st1" d="M43.9,32.4h-3.8c-2.2,0-4-1.8-4-4v-6c0-2.2,1.8-4,4-4h3.8c2.2,0,4,1.8,4,4v6C47.9,30.6,46.1,32.4,43.9,32.4z"
		/>
	<path class="st1" d="M59.9,32.4h-3.8c-2.2,0-4-1.8-4-4v-6c0-2.2,1.8-4,4-4h3.8c2.2,0,4,1.8,4,4v6C63.9,30.6,62.1,32.4,59.9,32.4z"
		/>
</g>
<g>
	<path class="st1" d="M43.9,52.4h-3.8c-2.2,0-4-1.8-4-4v-6c0-2.2,1.8-4,4-4h3.8c2.2,0,4,1.8,4,4v6C47.9,50.6,46.1,52.4,43.9,52.4z"
		/>
	<path class="st1" d="M59.9,52.4h-3.8c-2.2,0-4-1.8-4-4v-6c0-2.2,1.8-4,4-4h3.8c2.2,0,4,1.8,4,4v6C63.9,50.6,62.1,52.4,59.9,52.4z"
		/>
</g>
<g>
	<path class="st1" d="M43.9,72.4h-3.8c-2.2,0-4-1.8-4-4v-6c0-2.2,1.8-4,4-4h3.8c2.2,0,4,1.8,4,4v6C47.9,70.6,46.1,72.4,43.9,72.4z"
		/>
	<path class="st1" d="M59.9,72.4h-3.8c-2.2,0-4-1.8-4-4v-6c0-2.2,1.8-4,4-4h3.8c2.2,0,4,1.8,4,4v6C63.9,70.6,62.1,72.4,59.9,72.4z"
		/>
</g>
<path class="st2" d="M87,88.2H13c-0.4,0-0.8-0.3-0.8-0.8l0,0c0-0.4,0.3-0.8,0.8-0.8h74c0.4,0,0.8,0.3,0.8,0.8l0,0
	C87.8,87.8,87.4,88.2,87,88.2z"/>
<g>
	<path class="st2" d="M80,87.8L80,87.8c-0.3,0-0.5-0.2-0.5-0.5V67.8c0-0.3,0.2-0.5,0.5-0.5l0,0c0.3,0,0.5,0.2,0.5,0.5v19.6
		C80.5,87.6,80.3,87.8,80,87.8z"/>
	<ellipse class="st0" cx="80" cy="54.2" rx="4.9" ry="13.7"/>
</g>
<g>
	<path class="st2" d="M20,87.8L20,87.8c-0.3,0-0.5-0.2-0.5-0.5V67.8c0-0.3,0.2-0.5,0.5-0.5l0,0c0.3,0,0.5,0.2,0.5,0.5v19.6
		C20.5,87.6,20.3,87.8,20,87.8z"/>
	<ellipse class="st0" cx="20" cy="54.2" rx="4.9" ry="13.7"/>
</g>
</svg>
