<?xml version="1.0" encoding="utf-8"?>
<!-- Generator: Adobe Illustrator 21.0.2, SVG Export Plug-In . SVG Version: 6.00 Build 0)  -->
<svg version="1.1" id="Livello_1" xmlns="http://www.w3.org/2000/svg" xmlns:xlink="http://www.w3.org/1999/xlink" x="0px" y="0px"
	 viewBox="0 0 35 35" style="enable-background:new 0 0 35 35;" xml:space="preserve">
<style type="text/css">
	.st0{fill:#FFFFFF;stroke:#FFFFFF;stroke-miterlimit:10;}
</style>
<g>
	<g>
		<path class="st0" d="M6.5,6.8c0.1-0.1,0.2-0.2,0.3-0.3C6.9,6.4,7,6.3,7.1,6.2C7.2,6.2,7.3,6.1,7.4,6c0.1-0.1,0.2-0.2,0.3-0.3
			C7.8,5.6,7.9,5.5,8,5.5c0.1-0.1,0.2-0.2,0.3-0.3C8.4,5.1,8.5,5.1,8.6,5C8.7,4.9,8.9,4.8,9,4.7c0.1-0.1,0.2-0.1,0.3-0.2
			c0.1-0.1,0.2-0.1,0.4-0.2C9.8,4.3,9.9,4.2,10,4.1c0.1-0.1,0.2-0.1,0.4-0.2c0.1-0.1,0.2-0.1,0.3-0.2c0.1-0.1,0.3-0.1,0.4-0.2
			c0.1-0.1,0.2-0.1,0.3-0.2c0.1-0.1,0.3-0.1,0.4-0.2c0.1,0,0.2-0.1,0.3-0.1C12.3,3.1,12.4,3,12.5,3c0.1,0,0.2-0.1,0.3-0.1
			c0.1,0,0.3-0.1,0.4-0.1c0.1,0,0.2-0.1,0.3-0.1c0,0,0.1,0,0.1,0c-1.6,1.6-2.8,3.5-3.5,5.7C8.9,8,7.7,7.5,6.5,6.8
			C6.5,6.8,6.5,6.8,6.5,6.8z M17.6,1c-0.6,0-1.2,0-1.8,0.1c-0.5,0.1-1.1,0.1-1.6,0.3c-0.1,0-0.2,0-0.3,0.1C10.8,2.1,8,3.7,5.8,6
			C5.6,6.2,5.4,6.4,5.2,6.6c-6,6.9-5.3,17.3,1.6,23.3c6.6,5.7,16.5,5.4,22.6-0.9c0.2-0.2,0.4-0.4,0.6-0.7c2.6-3,4.1-6.9,4.1-10.9
			C34.1,8.4,26.7,1,17.6,1z M5.7,7.7C7.1,8.4,8.5,9,9.9,9.4c-0.7,2.5-1.1,5-1.1,7.6H2.2C2.3,13.6,3.6,10.3,5.7,7.7z M5.7,27.4
			c-2.2-2.6-3.4-5.9-3.5-9.3h6.6c0,2.6,0.4,5.1,1.1,7.6C8.5,26.1,7.1,26.6,5.7,27.4z M13.6,32.4c-0.1,0-0.2-0.1-0.3-0.1
			c-0.1,0-0.3-0.1-0.4-0.1c-0.1,0-0.2-0.1-0.3-0.1c-0.1,0-0.3-0.1-0.4-0.1c-0.1,0-0.2-0.1-0.3-0.1c-0.1-0.1-0.3-0.1-0.4-0.2
			c-0.1,0-0.2-0.1-0.3-0.2c-0.1-0.1-0.3-0.1-0.4-0.2c-0.1-0.1-0.2-0.1-0.3-0.2c-0.1-0.1-0.2-0.1-0.4-0.2c-0.1-0.1-0.2-0.1-0.3-0.2
			c-0.1-0.1-0.2-0.1-0.4-0.2c-0.1-0.1-0.2-0.1-0.3-0.2c-0.1-0.1-0.2-0.2-0.3-0.2c-0.1-0.1-0.2-0.1-0.3-0.2c-0.1-0.1-0.2-0.2-0.3-0.3
			c-0.1-0.1-0.2-0.2-0.3-0.2c-0.1-0.1-0.2-0.2-0.3-0.3c-0.1-0.1-0.2-0.2-0.3-0.2c-0.1-0.1-0.2-0.2-0.3-0.3c-0.1-0.1-0.2-0.2-0.3-0.3
			c0,0,0,0,0-0.1c1.2-0.6,2.5-1.1,3.8-1.5c0.7,2.2,1.9,4.1,3.5,5.7C13.7,32.4,13.7,32.4,13.6,32.4z M17.1,32.9
			c-2.4-0.3-4.4-2.8-5.7-6.4c1.9-0.4,3.8-0.6,5.7-0.7V32.9L17.1,32.9z M17.1,24.7c-2,0-4.1,0.3-6.1,0.7c-0.7-2.4-1.1-4.9-1.1-7.3
			h7.2L17.1,24.7L17.1,24.7z M17.1,17H9.9c0-2.5,0.4-5,1.1-7.3c2,0.5,4,0.7,6.1,0.7V17z M17.1,9.2c-1.9,0-3.8-0.3-5.7-0.7
			c1.3-3.6,3.4-6.1,5.7-6.4V9.2L17.1,9.2z M29.5,7.7c2.2,2.6,3.4,5.9,3.5,9.3h-6.6c0-2.6-0.4-5.1-1.1-7.6C26.8,9,28.2,8.4,29.5,7.7z
			 M21.6,2.6c0.1,0,0.2,0.1,0.3,0.1c0.1,0,0.3,0.1,0.4,0.1c0.1,0,0.2,0.1,0.3,0.1c0.1,0,0.3,0.1,0.4,0.1c0.1,0,0.2,0.1,0.3,0.1
			c0.1,0.1,0.3,0.1,0.4,0.2c0.1,0,0.2,0.1,0.3,0.2c0.1,0.1,0.3,0.1,0.4,0.2c0.1,0.1,0.2,0.1,0.3,0.2C25,4,25.1,4.1,25.2,4.1
			c0.1,0.1,0.2,0.1,0.3,0.2c0.1,0.1,0.2,0.1,0.4,0.2c0.1,0.1,0.2,0.1,0.3,0.2c0.1,0.1,0.2,0.2,0.3,0.2c0.1,0.1,0.2,0.1,0.3,0.2
			c0.1,0.1,0.2,0.2,0.3,0.3c0.1,0.1,0.2,0.2,0.3,0.2c0.1,0.1,0.2,0.2,0.3,0.3c0.1,0.1,0.2,0.2,0.3,0.2c0.1,0.1,0.2,0.2,0.3,0.3
			c0.1,0.1,0.2,0.2,0.3,0.3c0,0,0,0,0,0.1C27.5,7.5,26.3,8,25,8.3c-0.7-2.2-1.9-4.1-3.5-5.7C21.5,2.6,21.5,2.6,21.6,2.6z M18.2,2.1
			c2.4,0.3,4.4,2.8,5.7,6.4C22,9,20.1,9.2,18.2,9.2V2.1L18.2,2.1z M18.2,10.3c2,0,4.1-0.3,6.1-0.7c0.7,2.4,1.1,4.9,1.1,7.3h-7.2
			V10.3z M18.2,18.1h7.2c0,2.5-0.4,5-1.1,7.3l0,0c-2-0.5-4-0.7-6.1-0.7V18.1z M18.2,32.9v-7.1c1.9,0,3.8,0.3,5.7,0.7
			C22.6,30.1,20.5,32.6,18.2,32.9z M28.7,28.2c-0.1,0.1-0.2,0.2-0.3,0.3c-0.1,0.1-0.2,0.2-0.3,0.3c-0.1,0.1-0.2,0.2-0.3,0.3
			c-0.1,0.1-0.2,0.2-0.3,0.3c-0.1,0.1-0.2,0.2-0.3,0.2c-0.1,0.1-0.2,0.2-0.3,0.3c-0.1,0.1-0.2,0.1-0.3,0.2c-0.1,0.1-0.2,0.2-0.3,0.2
			c-0.1,0.1-0.2,0.1-0.3,0.2c-0.1,0.1-0.2,0.1-0.4,0.2c-0.1,0.1-0.2,0.1-0.3,0.2C25.1,31,25,31,24.9,31.1c-0.1,0.1-0.2,0.1-0.3,0.2
			c-0.1,0.1-0.3,0.1-0.4,0.2c-0.1,0.1-0.2,0.1-0.3,0.2c-0.1,0.1-0.3,0.1-0.4,0.2c-0.1,0-0.2,0.1-0.3,0.1C23,32,22.8,32,22.7,32.1
			c-0.1,0-0.2,0.1-0.3,0.1c-0.1,0-0.3,0.1-0.4,0.1c-0.1,0-0.2,0.1-0.3,0.1c0,0-0.1,0-0.1,0c1.6-1.6,2.8-3.5,3.5-5.7
			C26.3,27.1,27.5,27.6,28.7,28.2C28.7,28.2,28.7,28.2,28.7,28.2z M29.5,27.4c-1.3-0.7-2.7-1.3-4.2-1.7c0.7-2.5,1.1-5,1.1-7.6H33
			C32.9,21.5,31.6,24.7,29.5,27.4z"/>
	</g>
</g>
</svg>
