<?xml version="1.0" encoding="utf-8"?>
<!-- Generator: Adobe Illustrator 21.0.2, SVG Export Plug-In . SVG Version: 6.00 Build 0)  -->
<svg version="1.1" id="Livello_1" xmlns="http://www.w3.org/2000/svg" xmlns:xlink="http://www.w3.org/1999/xlink" x="0px" y="0px"
	 viewBox="0 0 35 35" style="enable-background:new 0 0 35 35;" xml:space="preserve">
<style type="text/css">
	.st0{fill:#FFFFFF;}
</style>
<g id="SnmKtr.tif">
	<g>
		<path class="st0" d="M19.1,19.7c1-1,2-2.1,3-3.1c0.6-0.6,1.4-0.7,2-0.2c0.6,0.5,0.7,1.4,0.1,2c-1.9,1.9-3.8,3.9-5.8,5.8
			c-0.6,0.6-1.4,0.6-2,0c-1.9-1.9-3.8-3.8-5.7-5.7c-0.6-0.6-0.5-1.5,0-2c0.5-0.5,1.4-0.5,2,0c0.5,0.5,1.1,1,1.6,1.6
			c0.5,0.5,1,1,1.7,1.5c0-0.3,0-0.5,0-0.8c0-4.1,0-8.2,0-12.3c0-0.2,0-0.5,0-0.7c0.1-0.8,0.7-1.3,1.5-1.3c0.7,0,1.3,0.6,1.4,1.3
			c0,0.3,0,0.5,0,0.8c0,4.3,0,8.7,0,13C19,19.6,19.1,19.7,19.1,19.7z"/>
		<path class="st0" d="M17.5,30.5c-3.7,0-7.5,0-11.2,0c-0.7,0-1.3-0.2-1.6-0.9c-0.4-0.8,0.1-1.7,0.9-1.9c0.3-0.1,0.6-0.1,0.9-0.1
			c7.3,0,14.7,0,22,0c0.2,0,0.3,0,0.5,0c0.9,0.1,1.6,0.7,1.5,1.5c0,0.8-0.7,1.4-1.6,1.4C25.1,30.5,21.3,30.5,17.5,30.5z"/>
	</g>
</g>
</svg>
