<?xml version="1.0" encoding="utf-8"?>
<!-- Generator: Adobe Illustrator 21.0.2, SVG Export Plug-In . SVG Version: 6.00 Build 0)  -->
<svg version="1.1" id="Livello_1" xmlns="http://www.w3.org/2000/svg" xmlns:xlink="http://www.w3.org/1999/xlink" x="0px" y="0px"
	 viewBox="0 0 273 55" style="enable-background:new 0 0 273 55;" xml:space="preserve">
<style type="text/css">
	.st0{enable-background:new    ;}
	.st1{fill:#192848;}
	.st2{fill:#BEB569;}
</style>
<g>
	<g class="st0">
		<path class="st1" d="M49.6,17.2c0-0.7,0.3-1.3,0.8-1.8c0.6-0.5,1.2-0.7,1.8-0.7c0.7,0,1.3,0.2,1.8,0.7s0.8,1.1,0.8,1.8
			c0,0.7-0.3,1.3-0.8,1.7c-0.5,0.5-1.1,0.7-1.8,0.7c-0.6,0-1.3-0.2-1.8-0.7C49.8,18.5,49.6,17.9,49.6,17.2z M49.8,23.8h4.5v18.5
			h-4.5V23.8z"/>
		<path class="st1" d="M65.4,23.8l0.4,4.2l-0.2-0.6c0.6-1.3,1.6-2.4,2.9-3.2c1.3-0.8,2.8-1.2,4.6-1.2c1.7,0,3.2,0.5,4.3,1.5
			c1.1,1,1.7,2.4,1.7,4v13.7h-4.5V30.2c0-0.9-0.3-1.7-0.8-2.3c-0.5-0.6-1.4-0.9-2.5-0.9c-1,0-1.9,0.3-2.7,0.9
			c-0.8,0.6-1.5,1.4-1.9,2.4c-0.5,1-0.7,2.2-0.7,3.6v8.4h-4.5V23.8H65.4z"/>
		<path class="st1" d="M93.1,42.8l-10.5-19H88l6.8,14.3L92,38l6.2-14.2h5.1l-10,19H93.1z"/>
		<path class="st1" d="M115.7,42.8c-2.1,0-4-0.4-5.5-1.3c-1.5-0.8-2.7-2-3.5-3.5c-0.8-1.5-1.2-3.2-1.2-5.1c0-1.8,0.5-3.5,1.4-5
			c0.9-1.5,2.2-2.7,3.8-3.6c1.6-0.9,3.3-1.3,5.2-1.3c2.5,0,4.5,0.7,6.2,2.2c1.6,1.4,2.7,3.5,3.3,6l-15.1,5.2l-1.1-2.6l12.1-4.3
			l-0.9,0.6c-0.4-0.9-0.9-1.7-1.7-2.4c-0.8-0.7-1.8-1-3.1-1c-1.1,0-2,0.3-2.8,0.8c-0.8,0.5-1.5,1.2-2,2.1c-0.5,0.9-0.7,2-0.7,3.2
			c0,1.2,0.3,2.3,0.8,3.2c0.5,0.9,1.2,1.7,2.1,2.2c0.9,0.5,1.9,0.8,3,0.8c0.8,0,1.6-0.1,2.3-0.4c0.7-0.3,1.4-0.7,2.1-1.1l2.1,3.4
			c-1,0.6-2,1.1-3.2,1.5C117.9,42.6,116.8,42.8,115.7,42.8z"/>
		<path class="st1" d="M134.4,23.8l0.4,5.3l-0.2-0.7c0.5-1.1,1.2-2.1,2.1-2.9s1.9-1.4,2.8-1.8s1.8-0.6,2.5-0.6l-0.2,4.5
			c-1.4-0.1-2.6,0.2-3.7,0.8c-1,0.6-1.9,1.4-2.5,2.5c-0.6,1-0.9,2.1-0.9,3.3v8.2h-4.5V23.8H134.4z"/>
	</g>
	<g class="st0">
		<path class="st2" d="M151.8,10.4l10.5,26.4l-2.4-0.5l10-25.9h5l-14.1,33.4l-14-33.4H151.8z"/>
		<path class="st2" d="M181.3,10.4h4.3v31.9h-4.3V10.4z"/>
		<path class="st2" d="M211.2,16.1c-1.1-0.6-2.3-1-3.6-1.5c-1.3-0.4-2.6-0.6-3.8-0.6c-1.7,0-3.1,0.4-4.1,1.2c-1,0.8-1.5,1.9-1.5,3.2
			c0,1,0.3,1.8,1,2.5s1.5,1.3,2.6,1.8c1.1,0.5,2.2,1,3.3,1.4c1,0.4,2,0.8,3,1.3c1,0.5,1.8,1.1,2.6,1.8c0.8,0.7,1.4,1.6,1.9,2.6
			c0.5,1,0.7,2.3,0.7,3.8c0,1.7-0.4,3.2-1.3,4.6c-0.8,1.4-2,2.5-3.6,3.3c-1.6,0.8-3.4,1.2-5.6,1.2c-1.4,0-2.8-0.2-4-0.5
			c-1.3-0.3-2.5-0.7-3.6-1.3c-1.1-0.5-2.1-1.1-2.9-1.6l1.9-3.4c0.7,0.5,1.5,1,2.4,1.4c0.9,0.5,1.9,0.8,2.9,1.1c1,0.3,2,0.4,2.9,0.4
			c1,0,2-0.2,3-0.6s1.8-0.9,2.5-1.7c0.6-0.8,1-1.8,1-3c0-1.1-0.3-2-0.9-2.7c-0.6-0.7-1.3-1.3-2.3-1.9c-0.9-0.5-1.9-1-3-1.4
			c-1-0.4-2-0.8-3-1.3s-2-1-2.9-1.7c-0.9-0.7-1.6-1.5-2.1-2.5c-0.5-1-0.8-2.1-0.8-3.5c0-1.7,0.4-3.1,1.2-4.4c0.8-1.3,1.9-2.2,3.3-3
			c1.4-0.7,3-1.1,4.9-1.2c2.1,0,3.9,0.2,5.5,0.8c1.6,0.5,3,1.1,4.2,1.9L211.2,16.1z"/>
		<path class="st2" d="M217.3,42.3l14-33.2h0.3l13.9,33.2h-4.9l-10.4-26.5l3-2l-11.7,28.5H217.3z M225.4,30.2h11.9l1.4,3.7h-14.5
			L225.4,30.2z"/>
		<path class="st2" d="M267.9,16.1c-1.1-0.6-2.3-1-3.6-1.5c-1.3-0.4-2.6-0.6-3.8-0.6c-1.7,0-3.1,0.4-4.1,1.2c-1,0.8-1.5,1.9-1.5,3.2
			c0,1,0.3,1.8,1,2.5s1.5,1.3,2.6,1.8c1.1,0.5,2.2,1,3.3,1.4c1,0.4,2,0.8,3,1.3c1,0.5,1.8,1.1,2.6,1.8c0.8,0.7,1.4,1.6,1.9,2.6
			c0.5,1,0.7,2.3,0.7,3.8c0,1.7-0.4,3.2-1.3,4.6c-0.8,1.4-2,2.5-3.6,3.3c-1.6,0.8-3.4,1.2-5.6,1.2c-1.4,0-2.8-0.2-4-0.5
			c-1.3-0.3-2.5-0.7-3.6-1.3c-1.1-0.5-2.1-1.1-2.9-1.6l1.9-3.4c0.7,0.5,1.5,1,2.4,1.4c0.9,0.5,1.9,0.8,2.9,1.1c1,0.3,2,0.4,2.9,0.4
			c1,0,2-0.2,3-0.6s1.8-0.9,2.5-1.7c0.6-0.8,1-1.8,1-3c0-1.1-0.3-2-0.9-2.7c-0.6-0.7-1.3-1.3-2.3-1.9c-0.9-0.5-1.9-1-3-1.4
			c-1-0.4-2-0.8-3-1.3s-2-1-2.9-1.7c-0.9-0.7-1.6-1.5-2.1-2.5c-0.5-1-0.8-2.1-0.8-3.5c0-1.7,0.4-3.1,1.2-4.4c0.8-1.3,1.9-2.2,3.3-3
			c1.4-0.7,3-1.1,4.9-1.2c2.1,0,3.9,0.2,5.5,0.8c1.6,0.5,3,1.1,4.2,1.9L267.9,16.1z"/>
	</g>
	<path class="st1" d="M4,2.7c0.9-0.4,1.9-0.4,2.8,0s1.6,1,2,2c0.4,0.9,0.4,1.9,0,2.8s-1,1.6-2,2C5.9,9.9,5,9.9,4,9.5
		c-0.9-0.4-1.6-1.1-2-2c-0.4-1-0.4-1.9,0-2.8S3.1,3.1,4,2.7z M11.7,12.6l9.5,22.8c0.8,1.9,1.5,3.1,2,3.7c0.5,0.5,1.2,0.8,1.8,0.9
		c0.7,0.1-1.6,0.4-0.1-0.2l-0.2,2.3l-10.8,4.5l-0.5-1.2c1.5-0.6,2.4-1.2,2.8-1.7s0.6-1.2,0.6-1.9s-0.4-2.1-1.1-4L10.8,26
		c-1.4-3.3-2.4-5.4-3-6.3c-0.5-0.7-0.9-1-1.4-1.2c-0.5-0.1-1-0.1-1.5,0.1c-0.6,0.3-1.3,0.7-2.1,1.4l-1-1l6.5-6.4"/>
	<g>
		<path class="st2" d="M39.2,12.6v0.8c-1,0.2-1.8,0.5-2.3,1c-0.8,0.7-1.4,1.8-2,3.2L24.6,42.5h-0.8l-11-25.2c-0.6-1.3-1-2.1-1.2-2.4
			c-0.4-0.4-0.8-0.8-1.3-1c-0.5-0.3-1.2-0.4-2.1-0.5v-0.8h11.9v0.8c-1.4,0.1-2.2,0.4-2.6,0.7s-0.6,0.8-0.6,1.3c0,0.7,0.3,1.8,1,3.4
			l7.4,17.1L32.2,19c0.7-1.7,1-2.8,1-3.5c0-0.4-0.2-0.8-0.6-1.2c-0.4-0.4-1.1-0.6-2.1-0.8c-0.1,0-0.2,0-0.4-0.1v-0.8
			C30.1,12.6,39.2,12.6,39.2,12.6z"/>
	</g>
</g>
</svg>
