<?xml version="1.0" encoding="utf-8"?>
<!-- Generator: Adobe Illustrator 21.0.2, SVG Export Plug-In . SVG Version: 6.00 Build 0)  -->
<svg version="1.1" xmlns="http://www.w3.org/2000/svg" xmlns:xlink="http://www.w3.org/1999/xlink" x="0px" y="0px"
	 viewBox="0 0 100 100" style="enable-background:new 0 0 100 100;" xml:space="preserve">
<style type="text/css">
	.st0{fill:#293173;stroke:#293173;stroke-miterlimit:10;}
	.st1{fill:#FFFFFF;stroke:#293173;stroke-miterlimit:10;}
	.st2{fill:#C1A24D;}
	.st3{fill:#FFFFFF;}
</style>
<g id="Livello_2">
	<path class="st0" d="M68.8,79.7l-41.7,6c-2.2,0-4-1.8-4-4V19.5c0-2.2,1.8-4,4-4l41.7-6c2.2,0,4,1.8,4,4v62.2
		C72.8,77.9,71,79.7,68.8,79.7z"/>
</g>
<g id="Livello_1">
	<path class="st1" d="M72.8,85.7H27.2c-2.2,0-4-1.8-4-4V19.5c0-2.2,1.8-4,4-4h45.7c2.2,0,4,1.8,4,4v62.2
		C76.8,83.9,75,85.7,72.8,85.7z"/>
	<g id="aBPivz.tif">
		<g>
			<path class="st2" d="M50,35c8.4,0,15,6.8,15,15.2c0,8.2-6.9,14.9-15.2,14.8c-8.4-0.1-14.9-7-14.8-15.2C35.1,41.7,41.9,35,50,35z
				 M35.6,49.7c0.2,0,0.3,0,0.4,0c1.9,0,3.9,0,5.8,0c0.4,0,0.4-0.1,0.4-0.4c0.1-1.9,0.4-3.8,1.1-5.6c0.2-0.5,0.4-1,0.6-1.5
				c-1.4-0.7-2.9-1.4-4.3-2.2C37.1,42.6,35.7,45.9,35.6,49.7z M64.4,50.3c-2.2,0-4.4,0-6.6,0c-0.1,2.7-0.7,5.2-1.8,7.5
				c1.5,0.7,2.9,1.5,4.3,2.2C62.9,57.5,64.4,53.6,64.4,50.3z M44,57.9c0-0.1,0-0.1-0.1-0.2c-1-2.2-1.6-4.6-1.7-7.1
				c0-0.3-0.1-0.3-0.4-0.3c-2,0-3.9,0-5.9,0c-0.1,0-0.3,0-0.4,0c0.1,3.8,1.5,7.1,4.1,9.8c0.7-0.4,1.4-0.8,2.1-1.2
				C42.5,58.5,43.3,58.2,44,57.9z M56,42.2c1.1,2.3,1.7,4.9,1.8,7.5c2.2,0,4.4,0,6.6,0c-0.1-3.8-1.5-7.1-4.1-9.7
				C58.9,40.7,57.4,41.4,56,42.2z M50.3,49.7c0.2,0,0.3,0,0.4,0c1.8,0,3.6,0,5.4,0c0.3,0,0.8,0.1,0.9-0.1c0.2-0.2,0.1-0.6,0.1-0.9
				c-0.1-2.2-0.7-4.2-1.6-6.2c-0.1-0.2-0.2-0.2-0.4-0.2c-1,0.2-2.1,0.4-3.1,0.6c-0.5,0.1-1.1,0.1-1.7,0.1
				C50.3,45.3,50.3,47.5,50.3,49.7z M50.3,56.9c0.1,0,0.2,0,0.3,0c1.5,0.1,2.9,0.3,4.4,0.7c0.3,0.1,0.4,0,0.5-0.3
				c1-2.2,1.5-4.4,1.6-6.8c0-0.3-0.1-0.3-0.3-0.3c-2.1,0-4.1,0-6.2,0c-0.1,0-0.2,0-0.3,0C50.3,52.5,50.3,54.7,50.3,56.9z M49.7,43.1
				c-0.1,0-0.3,0-0.4,0c-1.4-0.1-2.9-0.3-4.3-0.7c-0.3-0.1-0.4,0-0.6,0.3c-0.8,1.7-1.3,3.4-1.5,5.3c-0.1,0.6-0.1,1.2-0.1,1.8
				c2.3,0,4.6,0,6.8,0C49.7,47.5,49.7,45.3,49.7,43.1z M42.9,50.3c0,0.1,0,0.2,0,0.2c0.1,2.4,0.6,4.8,1.7,7c0.1,0.2,0.2,0.2,0.4,0.2
				c1-0.2,2-0.4,3-0.6c0.6-0.1,1.1-0.1,1.7-0.2c0-2.2,0-4.4,0-6.6C47.4,50.3,45.2,50.3,42.9,50.3z M59.8,39.5
				c-2.6-2.3-5.5-3.6-9-3.8c0.1,0.1,0.1,0.2,0.2,0.2c1.9,1.5,3.4,3.4,4.6,5.5c0.1,0.2,0.3,0.2,0.4,0.1c0.8-0.4,1.6-0.7,2.5-1.1
				C58.9,40.1,59.3,39.8,59.8,39.5z M50.9,64.3c3.4-0.2,6.4-1.5,8.9-3.8c-1.3-0.9-2.7-1.6-4.1-2.1C54.5,60.8,52.9,62.7,50.9,64.3z
				 M44.2,41.6c0.8-1.1,1.5-2.2,2.3-3.2c0.8-1,1.7-1.8,2.6-2.7c-3.4,0.2-6.4,1.5-8.9,3.8c0,0.1,0,0.1,0,0.2
				C41.6,40.3,42.9,40.9,44.2,41.6z M40.2,60.5c2.6,2.5,6.6,3.9,8.9,3.8c-2-1.6-3.6-3.6-4.8-5.8C42.9,59,41.5,59.6,40.2,60.5z
				 M50.3,57.5c0,2.1,0,4.2,0,6.4c2-1.6,3.6-3.4,4.7-5.6C53.5,57.8,51.9,57.6,50.3,57.5z M50.3,36.1c0,2.2,0,4.3,0,6.4
				c1.6,0,3.2-0.3,4.8-0.8C53.9,39.5,52.3,37.6,50.3,36.1z M49.7,36.1c-1.6,1-4.2,4.2-4.7,5.6c0.9,0.4,3.7,0.8,4.7,0.7
				C49.7,40.3,49.7,38.3,49.7,36.1z M44.9,58.3c1.2,2.2,2.7,4.1,4.7,5.6c0-2.2,0-4.3,0-6.4C48.1,57.6,46.5,57.8,44.9,58.3z"/>
			<path class="st3" d="M35.6,49.7c0.1-3.8,1.5-7.1,4.1-9.7c1.5,0.7,2.9,1.5,4.3,2.2c-0.2,0.4-0.4,1-0.6,1.5
				c-0.7,1.8-1.1,3.7-1.1,5.6c0,0.3-0.1,0.4-0.4,0.4c-1.9,0-3.9,0-5.8,0C35.9,49.7,35.8,49.7,35.6,49.7z"/>
			<path class="st3" d="M64.4,50.3c0,3.3-1.4,7.1-4.1,9.7c-1.4-0.7-2.9-1.4-4.3-2.2c1.1-2.3,1.7-4.8,1.8-7.5
				C60,50.3,62.2,50.3,64.4,50.3z"/>
			<path class="st3" d="M44,57.9c-0.8,0.3-1.5,0.6-2.2,1c-0.7,0.4-1.4,0.8-2.1,1.2c-2.6-2.7-4-6-4.1-9.8c0.2,0,0.3,0,0.4,0
				c2,0,3.9,0,5.9,0c0.2,0,0.4,0,0.4,0.3c0.1,2.5,0.6,4.8,1.7,7.1C44,57.8,44,57.8,44,57.9z"/>
			<path class="st3" d="M56,42.2c1.5-0.7,2.9-1.4,4.3-2.2c2.5,2.6,3.9,5.9,4.1,9.7c-2.2,0-4.4,0-6.6,0C57.7,47,57.1,44.5,56,42.2z"
				/>
			<path class="st3" d="M50.3,49.7c0-2.2,0-4.4,0-6.6c0.6,0,1.1-0.1,1.7-0.1c1-0.2,2.1-0.4,3.1-0.6c0.2,0,0.3,0,0.4,0.2
				c0.9,2,1.5,4,1.6,6.2c0,0.3,0.1,0.8-0.1,0.9c-0.1,0.2-0.6,0.1-0.9,0.1c-1.8,0-3.6,0-5.4,0C50.6,49.7,50.5,49.7,50.3,49.7z"/>
			<path class="st3" d="M50.3,56.9c0-2.2,0-4.4,0-6.6c0.1,0,0.2,0,0.3,0c2.1,0,4.1,0,6.2,0c0.2,0,0.4,0,0.3,0.3
				c-0.1,2.4-0.6,4.6-1.6,6.8c-0.1,0.2-0.2,0.3-0.5,0.3c-1.4-0.4-2.9-0.6-4.4-0.7C50.5,56.9,50.4,56.9,50.3,56.9z"/>
			<path class="st3" d="M49.7,43.1c0,2.2,0,4.4,0,6.6c-2.3,0-4.5,0-6.8,0c0-0.6,0.1-1.2,0.1-1.8c0.2-1.8,0.7-3.6,1.5-5.3
				c0.1-0.3,0.3-0.4,0.6-0.3c1.4,0.4,2.8,0.6,4.3,0.7C49.4,43.1,49.5,43.1,49.7,43.1z"/>
			<path class="st3" d="M42.9,50.3c2.3,0,4.5,0,6.8,0c0,2.2,0,4.4,0,6.6C49.1,57,48.5,57,48,57.1c-1,0.2-2,0.4-3,0.6
				c-0.2,0-0.3,0-0.4-0.2c-1-2.2-1.6-4.5-1.7-7C42.9,50.5,42.9,50.4,42.9,50.3z"/>
			<path class="st3" d="M59.8,39.5c-0.5,0.3-0.9,0.6-1.4,0.8c-0.8,0.4-1.6,0.7-2.5,1.1c-0.2,0.1-0.3,0.1-0.4-0.1
				c-1.2-2.1-2.7-4-4.6-5.5c0,0-0.1-0.1-0.2-0.2C54.3,35.9,57.2,37.2,59.8,39.5z"/>
			<path class="st3" d="M50.9,64.3c2-1.6,3.5-3.6,4.8-5.8c1.5,0.5,2.8,1.2,4.1,2.1C57.3,62.9,54.3,64.1,50.9,64.3z"/>
			<path class="st3" d="M44.2,41.6c-1.3-0.7-2.6-1.3-4-2c0-0.1,0-0.1,0-0.2c2.5-2.3,5.4-3.6,8.9-3.8c-0.9,0.9-1.8,1.8-2.6,2.7
				C45.7,39.4,45,40.4,44.2,41.6z"/>
			<path class="st3" d="M40.2,60.5c1.3-0.9,2.6-1.5,4.1-2c1.2,2.3,2.8,4.2,4.8,5.8C46.8,64.4,42.8,63.1,40.2,60.5z"/>
			<path class="st3" d="M50.3,57.5c1.6,0,3.2,0.3,4.7,0.7c-1.2,2.2-2.8,4.1-4.7,5.6C50.3,61.8,50.3,59.7,50.3,57.5z"/>
			<path class="st3" d="M50.3,36.1c2,1.6,3.6,3.4,4.8,5.6c-1.6,0.5-3.1,0.7-4.8,0.8C50.3,40.3,50.3,38.2,50.3,36.1z"/>
			<path class="st3" d="M49.7,36.1c0,2.1,0,4.2,0,6.3c-1,0.1-3.8-0.3-4.7-0.7C45.4,40.3,48.1,37.1,49.7,36.1z"/>
			<path class="st3" d="M44.9,58.3c1.6-0.5,3.1-0.7,4.7-0.7c0,2.1,0,4.2,0,6.4C47.7,62.4,46.1,60.5,44.9,58.3z"/>
		</g>
	</g>
</g>
</svg>
