<?xml version="1.0" encoding="utf-8"?>
<!-- Generator: Adobe Illustrator 21.0.2, SVG Export Plug-In . SVG Version: 6.00 Build 0)  -->
<svg version="1.1" id="Livello_1" xmlns="http://www.w3.org/2000/svg" xmlns:xlink="http://www.w3.org/1999/xlink" x="0px" y="0px"
	 viewBox="0 0 100 100" style="enable-background:new 0 0 100 100;" xml:space="preserve">
<style type="text/css">
	.st0{fill:#FFFFFF;stroke:#293173;stroke-miterlimit:10;}
	.st1{fill:#C1A24D;}
</style>
<path class="st0" d="M10.1,72.8V27.2c0-2.2,1.8-4,4-4h71.7c2.2,0,4,1.8,4,4v45.7c0,2.2-1.8,4-4,4H14.1C11.9,76.8,10.1,75,10.1,72.8z
	"/>
<circle class="st0" cx="26.2" cy="52.4" r="5.1"/>
<path class="st0" d="M18,68.3v-3.1c0-3.5,2.9-6.4,6.4-6.4h3.8c3.5,0,6.4,2.9,6.4,6.4v3.1"/>
<path class="st1" d="M81.2,33.6H18.8c-0.5,0-0.8-0.4-0.8-0.8l0,0c0-0.5,0.4-0.8,0.8-0.8h62.3c0.5,0,0.8,0.4,0.8,0.8l0,0
	C82,33.2,81.6,33.6,81.2,33.6z"/>
<path class="st1" d="M81.2,40.6H18.8c-0.5,0-0.8-0.4-0.8-0.8l0,0c0-0.5,0.4-0.8,0.8-0.8h62.3c0.5,0,0.8,0.4,0.8,0.8l0,0
	C82,40.2,81.6,40.6,81.2,40.6z"/>
<path class="st1" d="M81.8,51.6H45.5c-0.5,0-0.8-0.4-0.8-0.8l0,0c0-0.5,0.4-0.8,0.8-0.8h36.3c0.5,0,0.8,0.4,0.8,0.8l0,0
	C82.7,51.2,82.3,51.6,81.8,51.6z"/>
<path class="st1" d="M81.8,59.6H45.5c-0.5,0-0.8-0.4-0.8-0.8l0,0c0-0.5,0.4-0.8,0.8-0.8h36.3c0.5,0,0.8,0.4,0.8,0.8l0,0
	C82.7,59.2,82.3,59.6,81.8,59.6z"/>
<path class="st1" d="M81.8,67.6H45.5c-0.5,0-0.8-0.4-0.8-0.8l0,0c0-0.5,0.4-0.8,0.8-0.8h36.3c0.5,0,0.8,0.4,0.8,0.8l0,0
	C82.7,67.2,82.3,67.6,81.8,67.6z"/>
</svg>
